<svg width="48" height="49" viewBox="0 0 48 49" fill="none" xmlns="http://www.w3.org/2000/svg">
<path d="M16 29.2999C16 29.6999 16.2 30.0999 16.6 30.2999L21.6 33.2999C22.2 33.6999 22.8 33.2999 22.8 32.6999V27.0999C22.8 26.8999 22.6 26.4999 22.4 26.4999L17.2 23.0999C16.8 22.8999 16 23.2999 16 23.8999V29.2999Z" fill="#091E42"/>
<path d="M23.5999 26.8997V32.4997C23.5999 33.0997 24.1999 33.4997 24.7999 33.0997L29.7999 30.0997C30.1999 29.8997 30.3999 29.4997 30.3999 29.0997V23.8997C30.3999 23.2997 29.7999 22.8997 29.1999 23.2997L23.9999 26.0997C23.7999 26.2997 23.5999 26.4997 23.5999 26.8997Z" fill="#091E42"/>
<path d="M29.2 22.2998L23.6 25.4998C23.4 25.6998 23 25.6998 22.8 25.4998L17.2 22.2998C16.6 21.8998 16.6 21.2998 17.2 20.8998L22.8 17.6998C23 17.4998 23.4 17.4998 23.6 17.6998L29.2 20.8998C29.8 21.0998 29.8 21.8998 29.2 22.2998Z" fill="#36B37E"/>
<path d="M4 40.5001C4 40.9001 4.2 41.3001 4.6 41.5001L9.6 44.5001C10.2 44.9001 10.8 44.5001 10.8 43.9001V38.3001C10.8 38.1001 10.6 37.7001 10.4 37.7001L5.2 34.7001C4.6 34.3001 4 34.7001 4 35.3001V40.5001H4Z" fill="#091E42"/>
<path d="M11.5999 37.9003V43.5003C11.5999 44.1003 12.1999 44.5003 12.7999 44.1003L17.7999 41.1003C18.1999 40.9003 18.3999 40.5003 18.3999 40.1003V34.5003C18.3999 33.9003 17.7999 33.5003 17.1999 33.9003L11.9999 37.3003C11.7999 37.5003 11.5999 37.7003 11.5999 37.9003Z" fill="#091E42"/>
<path d="M17.2 33.2998L11.6 36.4998C11.4 36.6998 11 36.6998 10.8 36.4998L5.2 33.2998C4.6 32.8998 4.6 32.2998 5.2 31.8998L10.8 28.6998C11 28.4998 11.4 28.4998 11.6 28.6998L17.2 31.8998C17.6 32.2998 17.6 33.0998 17.2 33.2998Z" fill="#36B37E"/>
<path d="M28.2002 40.5001C28.2002 40.9001 28.4002 41.3001 28.8002 41.5001L33.8002 44.5001C34.4002 44.9001 35.0002 44.5001 35.0002 43.9001V38.3001C35.0002 38.1001 34.8002 37.7001 34.6002 37.7001L29.4002 34.7001C28.8002 34.3001 28.2002 34.7001 28.2002 35.3001V40.5001Z" fill="#091E42"/>
<path d="M35.5999 37.9003V43.5003C35.5999 44.1003 36.1999 44.5003 36.7999 44.1003L41.7999 41.1003C42.1999 40.9003 42.3999 40.5003 42.3999 40.1003V34.5003C42.3999 33.9003 41.7999 33.5003 41.1999 33.9003L35.9999 37.3003C35.7999 37.5003 35.5999 37.7003 35.5999 37.9003Z" fill="#091E42"/>
<path d="M41.2 33.2998L35.6 36.4998C35.4 36.6998 35 36.6998 34.8 36.4998L29.2 33.2998C28.6 32.8998 28.6 32.2998 29.2 31.8998L34.8 28.6998C35 28.4998 35.4 28.4998 35.6 28.6998L41.2 31.8998C41.8 32.2998 41.8 33.0998 41.2 33.2998Z" fill="#36B37E"/>
<path d="M4 18.3005C4 18.7005 4.2 19.1005 4.6 19.3005L9.6 22.3005C10 22.5005 10.8 22.1005 10.8 21.5005V15.7005C10.8 15.5005 10.6 15.1005 10.4 15.1005L5.2 12.1005C4.6 11.9005 4 12.1005 4 12.9005V18.3005Z" fill="#091E42"/>
<path d="M11.5999 15.6997V21.2997C11.5999 21.8997 12.1999 22.2997 12.7999 21.8997L17.7999 18.8997C18.1999 18.6997 18.3999 18.2997 18.3999 17.8997V12.8997C18.3999 12.2997 17.7999 11.8997 17.1999 12.2997L11.9999 15.0997C11.7999 15.2997 11.5999 15.4997 11.5999 15.6997Z" fill="#091E42"/>
<path d="M17.2 11.1L11.6 14.3C11.4 14.5 11 14.5 10.8 14.3L5.2 11.1C4.6 10.7 4.6 10.1 5.2 9.7L10.8 6.5C11 6.5 11.4 6.5 11.6 6.7L17.2 9.9C17.6 10.1 17.6 10.9 17.2 11.1Z" fill="#36B37E"/>
<path d="M28.2002 18.3005C28.2002 18.7005 28.4002 19.1005 28.8002 19.3005L33.8002 22.3005C34.4002 22.7005 35.0002 22.3005 35.0002 21.7005V15.7005C35.0002 15.5005 34.8002 15.1005 34.6002 15.1005L29.4002 12.1005C28.8002 11.7005 28.2002 12.1005 28.2002 12.7005V18.3005Z" fill="#091E42"/>
<path d="M35.5999 15.6997V21.2997C35.5999 21.8997 36.1999 22.2997 36.7999 21.8997L41.7999 18.8997C42.1999 18.6997 42.3999 18.2997 42.3999 17.8997V12.8997C42.3999 12.2997 41.7999 11.8997 41.1999 12.2997L35.9999 15.0997C35.7999 15.2997 35.5999 15.4997 35.5999 15.6997Z" fill="#091E42"/>
<path d="M41.2 11.0998L35.6 14.4998C35.4 14.4998 35.2 14.4998 34.8 14.4998L29.2 11.2998C28.6 10.8998 28.6 10.2998 29.2 9.8998L34.8 6.6998C35 6.4998 35.4 6.4998 35.6 6.6998L41.2 9.8998C41.8 10.0998 41.8 10.8998 41.2 11.0998Z" fill="#36B37E"/>
</svg>
