<svg width="236" height="128" viewBox="0 0 236 128" fill="none" xmlns="http://www.w3.org/2000/svg">
<path d="M122.389 22.0519L115.428 22.1657L57.5352 1L122.969 37.4141L133.643 28.7658L122.389 22.0519Z" fill="#36B37E"/>
<path d="M122.389 22.0522L235.042 1.79688L178.774 55.3939L122.389 22.0522Z" fill="#172B4D"/>
<path d="M57.5352 1L169.956 63.7005L144.664 68.2523L82.711 72.6903L57.5352 1Z" fill="white" stroke="#36B37E" stroke-width="1.43685" stroke-miterlimit="10" stroke-linejoin="round"/>
<path d="M169.956 63.7009L235.042 1.79688L188.055 69.3906L169.956 63.7009Z" fill="white" stroke="#36B37E" stroke-width="1.43685" stroke-miterlimit="10" stroke-linejoin="round"/>
<path d="M122.969 37.4138L152.09 13.8584L155.106 16.2481L145.941 50.2725L122.969 37.4138Z" fill="white" stroke="#36B37E" stroke-width="1.43685" stroke-miterlimit="10" stroke-linejoin="round"/>
<path d="M155.106 16.248L181.442 52.8897L169.956 63.7002L145.94 50.2725L155.106 16.248Z" fill="white" stroke="#36B37E" stroke-width="1.43685" stroke-miterlimit="10" stroke-linejoin="round"/>
<path d="M188.055 69.3899L144.665 68.252L169.956 63.7002L188.055 69.3899Z" fill="white" stroke="#36B37E" stroke-width="1.43685" stroke-miterlimit="10" stroke-linejoin="round"/>
<path d="M38.1605 51.8664L28.8791 53.4595L-52.7974 37.3008L42.3371 72.1218L54.751 58.3527L38.1605 51.8664Z" fill="white" stroke="#36B37E" stroke-width="1.43685" stroke-miterlimit="10" stroke-linejoin="round"/>
<path d="M38.1606 51.8663L183.879 1.79688L120.417 84.2976L38.1606 51.8663Z" fill="#C5E9DA" stroke="#36B37E" stroke-width="1.43685" stroke-miterlimit="10"/>
<path d="M-52.7974 37.3008L110.672 97.0427L77.8385 108.422L-3.83791 126.971L-52.7974 37.3008Z" fill="white" stroke="#36B37E" stroke-width="1.43685" stroke-miterlimit="10" stroke-linejoin="round"/>
<path d="M110.671 97.0425L183.878 1.79688L135.963 101.025L110.671 97.0425Z" fill="white" stroke="#36B37E" stroke-width="1.43685" stroke-miterlimit="10" stroke-linejoin="round"/>
<path d="M42.3369 72.1218L76.0981 34.9111L80.6227 37.3008L75.75 84.2978L42.3369 72.1218Z" fill="#36B37E"/>
<path d="M80.6227 37.3008L123.433 80.4287L110.671 97.0427L75.75 84.2977L80.6227 37.3008Z" fill="white" stroke="#36B37E" stroke-width="1.43685" stroke-miterlimit="10" stroke-linejoin="round"/>
<path d="M135.963 101.026L77.8384 108.422L110.671 97.043L135.963 101.026Z" fill="white" stroke="#36B37E" stroke-width="1.43685" stroke-miterlimit="10" stroke-linejoin="round"/>
</svg>
