<svg width="48" height="49" viewBox="0 0 48 49" fill="none" xmlns="http://www.w3.org/2000/svg">
<g clip-path="url(#clip0_34_2400)">
<path d="M36.2702 23.3957H45.7041C45.8515 23.3957 45.9989 23.2486 45.9989 23.1014C45.3355 13.2419 38.1865 5.07465 28.7526 3.01445C28.5315 2.94087 28.3104 3.23519 28.5315 3.45592C32.9536 8.38569 35.7543 15.4492 36.0491 23.175C35.9754 23.3221 36.1228 23.3957 36.2702 23.3957Z" fill="#091E42"/>
<path d="M24.1841 2.5C24.1104 2.5 24.0367 2.5 23.963 2.5C23.8893 2.5 23.8156 2.5 23.7419 2.5C18.0668 6.84114 14.5292 14.5669 14.1606 23.102C14.1606 23.2492 14.308 23.3963 14.4555 23.3963H33.4705C33.6179 23.3963 33.7653 23.2492 33.7653 23.102C33.4705 14.5669 29.8591 6.84114 24.1841 2.5Z" fill="#36B37E"/>
<path d="M14.4555 25.6035C14.308 25.6035 14.1606 25.7507 14.1606 25.8978C14.5292 34.5065 18.0668 42.1587 23.7419 46.4998C23.8156 46.4998 23.8893 46.4998 23.963 46.4998C24.0367 46.4998 24.1104 46.4998 24.1841 46.4998C29.8591 42.1587 33.3968 34.4329 33.7653 25.8978C33.7653 25.7507 33.6179 25.6035 33.4705 25.6035H14.4555Z" fill="#091E42"/>
<path d="M35.9754 25.8243C35.6806 33.55 32.9536 40.6136 28.5315 45.5433C28.3841 45.7641 28.5315 46.0584 28.7526 45.9848C38.1864 43.9246 45.4092 35.7574 45.9988 25.8978C45.9988 25.7507 45.8514 25.6035 45.704 25.6035H36.2702C36.1228 25.6035 35.9754 25.7507 35.9754 25.8243Z" fill="#36B37E"/>
<path d="M11.7282 25.6035H2.29432C2.14692 25.6035 1.99951 25.7507 1.99951 25.8978C2.58913 35.7574 9.81191 43.9246 19.2457 45.9848C19.4668 46.0584 19.688 45.7641 19.4668 45.5433C14.971 40.6136 12.2441 33.55 11.9493 25.8243C12.023 25.7507 11.8756 25.6035 11.7282 25.6035Z" fill="#36B37E"/>
<path d="M12.023 23.175C12.3178 15.4492 15.0447 8.38569 19.4668 3.45592C19.6143 3.23519 19.4668 2.94087 19.2457 3.01445C9.81191 5.07465 2.58913 13.2419 1.99951 23.1014C1.99951 23.2486 2.14692 23.3957 2.29432 23.3957H11.7282C11.8756 23.3957 12.023 23.3221 12.023 23.175Z" fill="#091E42"/>
</g>
<defs>
<clipPath id="clip0_34_2400">
<rect width="44" height="44" fill="white" transform="translate(1.99951 2.5)"/>
</clipPath>
</defs>
</svg>
