<svg width="48" height="49" viewBox="0 0 48 49" fill="none" xmlns="http://www.w3.org/2000/svg">
<g clip-path="url(#clip0_34_2481)">
<path d="M20.1996 4.5H29.1996C30.3996 4.5 31.1996 5.7 30.9996 6.9L26.5996 21.3H31.1996C32.5996 21.3 33.5996 22.7 32.9996 24.1L23.9996 42.5C23.5996 43.1 22.5996 42.9 22.7996 42.1L24.9996 28.1H17.9996C16.7996 28.1 15.9996 27.1 16.1996 25.9L18.3996 6.3C18.3996 5.3 19.1996 4.5 20.1996 4.5Z" fill="#36B37E"/>
<path d="M2.43662 17.1706L5.64445 15.3185C6.07216 15.0716 6.60763 15.3406 6.78668 15.8153L8.22241 21.9238L9.86196 20.9772C10.361 20.6891 11.0094 20.9892 11.0876 21.6185L11.7183 30.1189C11.7009 30.4181 11.3027 30.5516 11.2071 30.2214L9.07068 24.7101L6.57571 26.1506C6.14799 26.3975 5.65424 26.2008 5.4752 25.7261L2.17055 18.1914C1.96194 17.83 2.08019 17.3764 2.43662 17.1706Z" fill="#091E42"/>
<path d="M46.6256 17.1706L43.4178 15.3185C42.9901 15.0716 42.4546 15.3406 42.2756 15.8153L40.8398 21.9238L39.2003 20.9772C38.7013 20.6891 38.0528 20.9892 37.9746 21.6185L37.344 30.1189C37.3614 30.4181 37.7595 30.5516 37.8552 30.2214L39.9916 24.7101L42.4866 26.1506C42.9143 26.3975 43.408 26.2008 43.5871 25.7261L46.8917 18.1914C47.1003 17.83 46.9821 17.3764 46.6256 17.1706Z" fill="#091E42"/>
</g>
<defs>
<clipPath id="clip0_34_2481">
<rect width="48" height="48" fill="white" transform="translate(0 0.5)"/>
</clipPath>
</defs>
</svg>
